<svg width="124" height="118" viewBox="0 0 124 118" fill="none" xmlns="http://www.w3.org/2000/svg">
<mask id="path-1-inside-1_11_1697" fill="white">
<path fill-rule="evenodd" clip-rule="evenodd" d="M27.4024 24C15.5822 24 6 33.5822 6 45.4024V58.2439C6 69.9515 15.4909 79.4424 27.1986 79.4424H62.2578H71.2096C72.8719 79.4424 74.4204 80.2865 75.3211 81.6836L77.6026 85.2221C81.5058 91.276 88.216 94.9337 95.4191 94.9337H97.3169C109.025 94.9337 118.516 85.4428 118.516 73.7351V61.5052C118.516 49.7975 109.025 40.3066 97.3169 40.3066H90.3866H62.2578L51.1742 39.5798C50.334 39.5247 49.5813 39.0414 49.1815 38.3004L44.932 30.4233C42.7975 26.4666 38.6642 24 34.1685 24H27.4024ZM101.394 60.9612V74.5504C101.394 77.2522 99.2034 79.4424 96.5016 79.4424H75.0842C74.2701 79.4424 73.5134 79.0234 73.0813 78.3334L66.1949 67.3352C65.4955 66.2182 64.4968 65.3197 63.3122 64.7419C62.3501 64.2725 61.2937 64.0286 60.2232 64.0286H27.1986C24.4968 64.0286 22.3066 61.8384 22.3066 59.1366V45.1986C22.3066 42.4968 24.4968 40.3066 27.1986 40.3066H37.3503H49.3783C49.5801 40.3066 49.7864 40.3294 49.9782 40.3922C52.4876 41.2147 53.3749 44.0493 54.3257 47.0865C55.6684 51.3759 57.1376 56.0693 63.4807 56.0693H81.6218H96.5016C99.2034 56.0693 101.394 58.2595 101.394 60.9612Z"/>
</mask>
<path fill-rule="evenodd" clip-rule="evenodd" d="M27.4024 24C15.5822 24 6 33.5822 6 45.4024V58.2439C6 69.9515 15.4909 79.4424 27.1986 79.4424H62.2578H71.2096C72.8719 79.4424 74.4204 80.2865 75.3211 81.6836L77.6026 85.2221C81.5058 91.276 88.216 94.9337 95.4191 94.9337H97.3169C109.025 94.9337 118.516 85.4428 118.516 73.7351V61.5052C118.516 49.7975 109.025 40.3066 97.3169 40.3066H90.3866H62.2578L51.1742 39.5798C50.334 39.5247 49.5813 39.0414 49.1815 38.3004L44.932 30.4233C42.7975 26.4666 38.6642 24 34.1685 24H27.4024ZM101.394 60.9612V74.5504C101.394 77.2522 99.2034 79.4424 96.5016 79.4424H75.0842C74.2701 79.4424 73.5134 79.0234 73.0813 78.3334L66.1949 67.3352C65.4955 66.2182 64.4968 65.3197 63.3122 64.7419C62.3501 64.2725 61.2937 64.0286 60.2232 64.0286H27.1986C24.4968 64.0286 22.3066 61.8384 22.3066 59.1366V45.1986C22.3066 42.4968 24.4968 40.3066 27.1986 40.3066H37.3503H49.3783C49.5801 40.3066 49.7864 40.3294 49.9782 40.3922C52.4876 41.2147 53.3749 44.0493 54.3257 47.0865C55.6684 51.3759 57.1376 56.0693 63.4807 56.0693H81.6218H96.5016C99.2034 56.0693 101.394 58.2595 101.394 60.9612Z" fill="black"/>
<path d="M75.3211 81.6836L74.6359 82.1254V82.1254L75.3211 81.6836ZM77.6026 85.2221L78.2878 84.7803V84.7803L77.6026 85.2221ZM62.2578 40.3066L62.2044 41.1202L62.231 41.1219H62.2578V40.3066ZM51.1742 39.5798L51.2275 38.7662V38.7662L51.1742 39.5798ZM49.1815 38.3004L48.464 38.6875V38.6875L49.1815 38.3004ZM44.932 30.4233L44.2145 30.8104V30.8104L44.932 30.4233ZM73.0813 78.3334L73.7724 77.9007L73.7724 77.9007L73.0813 78.3334ZM66.1949 67.3352L66.8859 66.9025V66.9025L66.1949 67.3352ZM63.3122 64.7419L62.9548 65.4747H62.9548L63.3122 64.7419ZM49.9782 40.3922L50.2321 39.6175V39.6175L49.9782 40.3922ZM54.3257 47.0865L55.1038 46.843V46.843L54.3257 47.0865ZM6.81533 45.4024C6.81533 34.0325 16.0325 24.8153 27.4024 24.8153V23.1847C15.1319 23.1847 5.18467 33.1319 5.18467 45.4024H6.81533ZM6.81533 58.2439V45.4024H5.18467V58.2439H6.81533ZM27.1986 78.6271C15.9412 78.6271 6.81533 69.5012 6.81533 58.2439H5.18467C5.18467 70.4018 15.0407 80.2578 27.1986 80.2578V78.6271ZM62.2578 78.6271H27.1986V80.2578H62.2578V78.6271ZM71.2096 78.6271H62.2578V80.2578H71.2096V78.6271ZM76.0064 81.2418C74.9555 79.6119 73.1489 78.6271 71.2096 78.6271V80.2578C72.5948 80.2578 73.8853 80.9612 74.6359 82.1254L76.0064 81.2418ZM78.2878 84.7803L76.0064 81.2418L74.6359 82.1254L76.9173 85.6639L78.2878 84.7803ZM95.4191 94.1184C88.493 94.1184 82.0409 90.6014 78.2878 84.7803L76.9173 85.6639C80.9706 91.9507 87.939 95.749 95.4191 95.749V94.1184ZM97.3169 94.1184H95.4191V95.749H97.3169V94.1184ZM117.7 73.7351C117.7 84.9925 108.574 94.1184 97.3169 94.1184V95.749C109.475 95.749 119.331 85.8931 119.331 73.7351H117.7ZM117.7 61.5052V73.7351H119.331V61.5052H117.7ZM97.3169 41.1219C108.574 41.1219 117.7 50.2478 117.7 61.5052H119.331C119.331 49.3472 109.475 39.4913 97.3169 39.4913V41.1219ZM90.3866 41.1219H97.3169V39.4913H90.3866V41.1219ZM62.2578 41.1219H90.3866V39.4913H62.2578V41.1219ZM51.1208 40.3934L62.2044 41.1202L62.3111 39.493L51.2275 38.7662L51.1208 40.3934ZM48.464 38.6875C48.997 39.6755 50.0006 40.3199 51.1208 40.3934L51.2275 38.7662C50.6674 38.7295 50.1656 38.4073 49.8991 37.9133L48.464 38.6875ZM44.2145 30.8104L48.464 38.6875L49.8991 37.9133L45.6496 30.0362L44.2145 30.8104ZM34.1685 24.8153C38.3645 24.8153 42.2222 27.1175 44.2145 30.8104L45.6496 30.0362C43.3728 25.8157 38.9639 23.1847 34.1685 23.1847V24.8153ZM27.4024 24.8153H34.1685V23.1847H27.4024V24.8153ZM102.209 74.5504V60.9612H100.578V74.5504H102.209ZM96.5016 80.2577C99.6536 80.2577 102.209 77.7025 102.209 74.5504H100.578C100.578 76.8019 98.7531 78.6271 96.5016 78.6271V80.2577ZM75.0842 80.2577H96.5016V78.6271H75.0842V80.2577ZM72.3903 78.7661C72.9714 79.6941 73.9893 80.2577 75.0842 80.2577V78.6271C74.551 78.6271 74.0554 78.3526 73.7724 77.9007L72.3903 78.7661ZM65.5038 67.7679L72.3903 78.7661L73.7724 77.9007L66.8859 66.9025L65.5038 67.7679ZM62.9548 65.4747C64.0022 65.9856 64.8854 66.7801 65.5038 67.7679L66.8859 66.9025C66.1056 65.6562 64.9913 64.6538 63.6697 64.0091L62.9548 65.4747ZM60.2232 64.8439C61.1698 64.8439 62.104 65.0596 62.9548 65.4747L63.6697 64.0091C62.5963 63.4854 61.4176 63.2133 60.2232 63.2133V64.8439ZM27.1986 64.8439H60.2232V63.2133H27.1986V64.8439ZM21.4913 59.1366C21.4913 62.2887 24.0465 64.8439 27.1986 64.8439V63.2133C24.9471 63.2133 23.1219 61.3881 23.1219 59.1366H21.4913ZM21.4913 45.1986V59.1366H23.1219V45.1986H21.4913ZM27.1986 39.4913C24.0465 39.4913 21.4913 42.0465 21.4913 45.1986H23.1219C23.1219 42.9471 24.9471 41.1219 27.1986 41.1219V39.4913ZM37.3503 39.4913H27.1986V41.1219H37.3503V39.4913ZM49.3783 39.4913H37.3503V41.1219H49.3783V39.4913ZM50.2321 39.6175C49.9345 39.5199 49.6371 39.4913 49.3783 39.4913V41.1219C49.5231 41.1219 49.6382 41.1388 49.7242 41.167L50.2321 39.6175ZM55.1038 46.843C54.635 45.3454 54.1523 43.7929 53.451 42.5163C52.7385 41.2192 51.752 40.1156 50.2321 39.6175L49.7242 41.167C50.7138 41.4913 51.4256 42.2162 52.0218 43.3014C52.6292 44.4071 53.0656 45.7905 53.5476 47.3301L55.1038 46.843ZM63.4807 55.2539C60.5541 55.2539 58.8414 54.1916 57.6719 52.6862C56.4508 51.1143 55.7854 49.0203 55.1038 46.843L53.5476 47.3301C54.2087 49.4421 54.9492 51.8395 56.3842 53.6866C57.8708 55.6002 60.0642 56.8846 63.4807 56.8846V55.2539ZM81.6218 55.2539H63.4807V56.8846H81.6218V55.2539ZM96.5016 55.2539H81.6218V56.8846H96.5016V55.2539ZM102.209 60.9612C102.209 57.8092 99.6536 55.2539 96.5016 55.2539V56.8846C98.7531 56.8846 100.578 58.7098 100.578 60.9612H102.209Z" fill="black" mask="url(#path-1-inside-1_11_1697)"/>
</svg>
