<svg width="124" height="118" viewBox="0 0 124 118" fill="none" xmlns="http://www.w3.org/2000/svg">
<path fill-rule="evenodd" clip-rule="evenodd" d="M115.165 34.8256V2C99.4547 2 89.5225 8.58854 83.5801 16.2918C78.9381 22.3091 77.8196 29.812 76.6882 37.4016C75.8715 42.8796 75.0481 48.4027 72.8882 53.445C69.6729 60.9512 64.6742 66.2306 60.6709 69.1991C57.827 71.1061 52.9896 73.7932 49.743 74.257C49.1892 74.3361 48.45 74.3867 47.574 74.4467C40.3422 74.9421 23.7814 76.0764 25.0878 99.1563C25.1692 97.8544 26.0642 95.0552 28.9936 94.2741H87.3362C87.2548 89.0664 84.2604 78.1139 72.9336 75.9657L72.5308 75.6566C92.7899 79.0407 105.303 66.2841 111.501 54.179C114.536 48.2516 115.165 41.4848 115.165 34.8256ZM31.4347 90.8565C32.6481 90.8565 33.6317 89.8729 33.6317 88.6595C33.6317 87.4462 32.6481 86.4625 31.4347 86.4625C30.2213 86.4625 29.2377 87.4462 29.2377 88.6595C29.2377 89.8729 30.2213 90.8565 31.4347 90.8565Z" fill="black"/>
<path d="M8 7.12634V35.2212C8 41.363 8.56475 47.616 11.416 53.0559C18.088 65.785 32.7431 79.0304 57.5546 67.1777C52.5738 64.4027 43.4616 55.7666 42.0354 41.6283C41.9101 40.3856 41.8436 39.1332 41.7771 37.8821C41.6158 34.8438 41.4549 31.8137 40.4524 28.9505C37.0824 19.3258 27.8665 7.12634 8 7.12634Z" fill="black"/>
<path d="M108.574 94.5182H87.5803V116C104.961 114.633 108.818 101.109 108.574 94.5182Z" fill="black"/>
</svg>
