<svg width="124" height="118" viewBox="0 0 124 118" fill="none" xmlns="http://www.w3.org/2000/svg">
<path d="M112.197 3.59518C114.144 5.67121 114.093 8.91762 112.081 10.9307L67.7655 55.2701C65.7074 57.3294 65.7073 60.6669 67.7654 62.7261L112.081 107.066C114.093 109.08 114.144 112.326 112.197 114.402L111.625 115.013C110.628 116.076 109.235 116.679 107.778 116.679H79.1488C77.7438 116.679 76.3968 116.118 75.4068 115.121L45.4953 85.0007C43.4747 82.966 43.4502 79.6898 45.4401 77.6251L59.865 62.6578C61.8337 60.6151 61.8336 57.3811 59.865 55.3385L45.4402 40.3721C43.4503 38.3074 43.4748 35.0311 45.4953 32.9964L75.4068 2.87603C76.3968 1.87908 77.7438 1.31842 79.1488 1.31842H107.778C109.235 1.31842 110.628 1.9215 111.625 2.98451L112.197 3.59518ZM41.5298 35.3663C41.5298 36.7789 40.9631 38.1324 39.9566 39.1236L23.5049 55.3265C21.4409 57.3593 18.1235 57.3466 16.0752 55.298L12.0918 51.3142C11.1029 50.3252 10.5474 48.9839 10.5474 47.5854V26.5526C10.5474 25.1673 11.0925 23.8376 12.0649 22.8509L31.4113 3.22038C32.4024 2.21472 33.7554 1.6485 35.1674 1.6485H36.2562C39.1687 1.6485 41.5298 4.00958 41.5298 6.92212V35.3663Z" fill="black"/>
</svg>
