<svg width="124" height="118" viewBox="0 0 124 118" fill="none" xmlns="http://www.w3.org/2000/svg">
<circle cx="83.4106" cy="86.7354" r="26.6762" fill="black"/>
<path d="M37.5124 8.79892C39.123 6.00925 43.1496 6.00925 44.7602 8.79892L67.8624 48.8132C69.4731 51.6029 67.4598 55.09 64.2386 55.09H18.034C14.8128 55.09 12.7995 51.6029 14.4101 48.8132L37.5124 8.79892Z" fill="black"/>
<path d="M50.4577 66.9219C50.4577 63.9314 48.6529 61.1452 45.7191 60.5656C44.0373 60.2333 42.2988 60.0591 40.5195 60.0591C25.7866 60.0591 13.8433 72.0025 13.8433 86.7354C13.8433 101.468 25.7866 113.412 40.5195 113.412C42.2988 113.412 44.0373 113.237 45.7191 112.905C48.6529 112.325 50.4577 109.539 50.4577 106.549V66.9219Z" fill="black"/>
<path d="M73.4725 51.1041C73.4725 54.0946 75.2773 56.8808 78.2111 57.4604C79.8928 57.7927 81.6314 57.9669 83.4107 57.9669C98.1436 57.9669 110.087 46.0235 110.087 31.2906C110.087 16.5578 98.1436 4.61443 83.4107 4.61443C81.6314 4.61443 79.8928 4.78863 78.2111 5.1209C75.2773 5.70052 73.4725 8.48673 73.4725 11.4772V51.1041Z" fill="black"/>
</svg>
