<svg width="124" height="118" viewBox="0 0 124 118" fill="none" xmlns="http://www.w3.org/2000/svg">
<path d="M52.1564 31.9623C58.6667 35.026 66.2042 35.026 72.7145 31.9623L118.491 10.4202C119.719 9.8423 119.308 8 117.95 8H6.92041C5.5632 8 5.15137 9.8423 6.3794 10.4202L52.1564 31.9623Z" fill="black"/>
<path d="M57.2076 57.1869C56.5458 50.0223 52.7226 43.5263 46.7802 39.4696L4.99589 10.9447C3.87497 10.1795 2.49613 11.4689 3.18453 12.6385L59.501 108.326C60.1894 109.496 61.986 108.916 61.8612 107.565L57.2076 57.1869Z" fill="black"/>
<path d="M67.6557 57.2313C68.3175 50.0666 72.1407 43.5707 78.0831 39.5139L119.867 10.9891C120.988 10.2239 122.367 11.5132 121.679 12.6829L65.3623 108.371C64.6739 109.54 62.8773 108.961 63.0021 107.609L67.6557 57.2313Z" fill="black"/>
</svg>
