<svg width="124" height="118" viewBox="0 0 124 118" fill="none" xmlns="http://www.w3.org/2000/svg">
<path d="M64.5058 43.8236C63.9153 45.6487 61.3332 45.6487 60.7427 43.8236L48.9586 7.39997C48.5453 6.12268 49.4977 4.81362 50.8401 4.81362H74.4084C75.7508 4.81362 76.7032 6.12268 76.2899 7.39997L64.5058 43.8236Z" fill="black"/>
<path d="M64.5058 73.9129C63.9153 72.0878 61.3332 72.0878 60.7427 73.9129L48.9586 110.337C48.5453 111.614 49.4977 112.923 50.8401 112.923H74.4084C75.7508 112.923 76.7032 111.614 76.2899 110.337L64.5058 73.9129Z" fill="black"/>
<path d="M74.4107 60.4305C72.5901 59.8262 72.6096 57.2441 74.4391 56.6674L110.951 45.1588C112.231 44.7552 113.533 45.7174 113.523 47.0598L113.345 70.6274C113.335 71.9698 112.018 72.9123 110.744 72.4894L74.4107 60.4305Z" fill="black"/>
<path d="M51.6576 60.7933C53.4783 60.189 53.4588 57.6069 51.6292 57.0302L15.1176 45.5216C13.8372 45.118 12.5354 46.0802 12.5456 47.4226L12.7236 70.9902C12.7337 72.3326 14.0499 73.2751 15.3241 72.8522L51.6576 60.7933Z" fill="black"/>
<path d="M71.5837 54.0161C68.7116 55.5096 65.6324 52.4005 67.1537 49.5429L87.6561 11.0308C88.2912 9.83785 89.5902 9.15347 90.9332 9.30421L107.281 11.1391C108.751 11.3041 109.931 12.428 110.167 13.888L112.782 30.0428C113.009 31.4465 112.31 32.8376 111.049 33.4937L71.5837 54.0161Z" fill="black"/>
<path d="M71.6269 64.3178C68.7549 62.8243 65.6756 65.9334 67.1969 68.7909L87.6993 107.303C88.3344 108.496 89.6334 109.18 90.9764 109.03L107.325 107.195C108.794 107.03 109.974 105.906 110.211 104.446L112.825 88.291C113.052 86.8874 112.354 85.4962 111.092 84.8402L71.6269 64.3178Z" fill="black"/>
<path d="M52.2813 64.3178C55.1534 62.8243 58.2326 65.9334 56.7113 68.7909L36.2089 107.303C35.5738 108.496 34.2748 109.18 32.9318 109.03L16.5836 107.195C15.1138 107.03 13.9338 105.906 13.6976 104.446L11.0831 88.291C10.8559 86.8874 11.5545 85.4962 12.8161 84.8402L52.2813 64.3178Z" fill="black"/>
<path d="M54.2446 53.8954C57.119 55.3954 60.2046 52.2795 58.6765 49.4199L38.0068 10.7397C37.3723 9.55216 36.0792 8.87001 34.7408 9.01668L18.3452 10.8134C16.8687 10.9752 15.6828 12.1045 15.4492 13.5714L12.8699 29.7659C12.647 31.1654 13.3436 32.5508 14.6 33.2064L54.2446 53.8954Z" fill="black"/>
</svg>
