<svg width="124" height="118" viewBox="0 0 124 118" fill="none" xmlns="http://www.w3.org/2000/svg">
<g clip-path="url(#clip0_19_400)">
<path fill-rule="evenodd" clip-rule="evenodd" d="M20.188 53.1285C21.1049 52.5884 21.6677 51.6037 21.6677 50.5395V2.00912C21.6677 -0.286301 24.1373 -1.73404 26.1403 -0.612747L70.3532 24.139C71.3023 24.6703 71.8902 25.6731 71.8902 26.7608V42.1495C71.8902 43.2242 72.4641 44.217 73.3954 44.7533L115.495 68.9981C117.491 70.1475 117.504 73.0227 115.52 74.1912L71.867 99.8915C70.9504 100.431 69.8167 100.446 68.8863 99.9305L56.0009 92.7913C55.0737 92.2776 53.9445 92.2904 53.0292 92.825L10.5202 117.653C8.51707 118.823 6 117.378 6 115.059V63.2032C6 62.139 6.56284 61.1543 7.47974 60.6142L20.188 53.1285ZM81.8227 64.3862C83.6543 63.4114 83.6735 60.7934 81.8565 59.7919L35.2783 34.1175C33.5445 33.1618 31.4191 34.4066 31.4046 36.3863L31.0322 87.0477C31.0177 89.0274 33.1245 90.3033 34.8721 89.3732L81.8227 64.3862Z" fill="black"/>
</g>
<defs>
<clipPath id="clip0_19_400">
<rect width="123.93" height="117.997" fill="white"/>
</clipPath>
</defs>
</svg>
