<svg width="124" height="118" viewBox="0 0 124 118" fill="none" xmlns="http://www.w3.org/2000/svg">
<g clip-path="url(#clip0_11_1707)">
<path fill-rule="evenodd" clip-rule="evenodd" d="M97.4293 114.812C113.451 103.54 123.93 84.8381 123.93 63.6731C123.93 29.2355 96.1874 1.31836 61.9651 1.31836C27.7427 1.31836 0 29.2355 0 63.6731C0 84.8381 10.4789 103.54 26.5008 114.812C31.3848 118.248 34.5738 116.021 39.1509 112.825C43.9899 109.446 50.3802 104.983 61.9651 104.983C73.5499 104.983 79.9403 109.446 84.7792 112.825C89.3563 116.021 92.5453 118.248 97.4293 114.812ZM62.3548 95.6689C80.0041 95.6689 94.3117 81.0037 94.3117 62.9132C94.3117 44.8227 80.0041 30.1574 62.3548 30.1574C44.7056 30.1574 30.398 44.8227 30.398 62.9132C30.398 81.0037 44.7056 95.6689 62.3548 95.6689Z" fill="black"/>
</g>
<defs>
<clipPath id="clip0_11_1707">
<rect width="123.93" height="117.997" fill="white"/>
</clipPath>
</defs>
</svg>
