<svg width="124" height="118" viewBox="0 0 124 118" fill="none" xmlns="http://www.w3.org/2000/svg">
<g clip-path="url(#clip0_41_614)">
<path d="M82.6306 0C79.8604 5.32092 74.9984 15.6531 72.43 24.0313C80.497 18.2644 89.0129 13.5149 97.6896 10.449C93.9825 17.5694 87.0092 32.5146 84.7598 42.5941C93.0521 37.1488 101.702 32.6834 110.474 29.7215C105.427 39.0923 95.1513 60.5111 94.4257 71.2193C83.5883 74.5743 52.906 88.8011 18.5906 118.443C25.5824 101.301 45.556 73.6638 70.6591 53.0204C57.6282 59.6057 38.4488 71.4317 17.8355 89.7486C22.896 76.8262 36.1412 57.0952 53.4438 40.1036C42.5167 46.1741 28.2058 55.6353 13 69.1471C20.7367 49.3908 50.4126 11.3841 82.6306 0Z" fill="black"/>
</g>
<defs>
<clipPath id="clip0_41_614">
<rect width="123.93" height="117.997" fill="white"/>
</clipPath>
</defs>
</svg>
