<svg width="124" height="118" viewBox="0 0 124 118" fill="none" xmlns="http://www.w3.org/2000/svg">
<path d="M109.605 10L84.1682 54.328C82.8024 56.708 82.7925 59.6303 84.142 62.0195L94.2087 79.8412L119.946 35.5839C121.352 33.167 121.351 30.183 119.945 27.7665L109.605 10Z" fill="black"/>
<path d="M29.4685 38.1588L4.03133 82.4868C2.6656 84.8668 2.65567 87.7891 4.00522 90.1783L14.0719 108L39.8094 63.7427C41.2149 61.3258 41.2144 58.3418 39.8081 55.9253L29.4685 38.1588Z" fill="black"/>
<path d="M57.8479 30.3556L45.6072 10.1853L36.4407 26.4595C34.8812 29.2283 34.9192 32.6175 36.5402 35.3507L45.618 50.6564C47.2211 53.3594 50.1333 55.017 53.279 55.017H70.4706C73.5772 55.017 76.4592 53.4001 78.0752 50.7505L87.9016 34.6389H65.4626C62.3491 34.6389 59.4617 33.0147 57.8479 30.3556Z" fill="black"/>
<path d="M59.896 82.7093L36.2825 82.3085L45.7432 66.203C47.3527 63.463 50.3037 61.7886 53.4845 61.8104L71.2968 61.9327C74.4425 61.9543 77.3432 63.6319 78.9277 66.3458L87.587 81.1776C89.1518 83.8577 89.2047 87.1585 87.7267 89.8873L78.7392 106.48L67.4368 87.1213C65.8685 84.4351 63.0092 82.7622 59.896 82.7093Z" fill="black"/>
</svg>
