<svg width="1000" height="1000" viewBox="0 0 1000 1000" fill="none" xmlns="http://www.w3.org/2000/svg">
<g clip-path="url(#clip0_1002_3)">
<path d="M25 500.205C25 633.944 205.38 742.342 427.916 742.342V598.989C278.924 598.989 158.162 526.396 158.162 436.851C158.162 347.307 278.924 274.713 427.916 274.713V258C205.414 258 25 366.432 25 500.137V500.205Z" fill="black"/>
<path d="M572.084 258.068V274.781C721.076 274.781 841.839 347.375 841.839 436.919C841.839 526.464 721.076 599.057 572.084 599.057V742.41C794.586 742.41 975 633.978 975 500.273C975 366.568 794.62 258.136 572.084 258.136V258.068Z" fill="black"/>
</g>
<defs>
<clipPath id="clip0_1002_3">
<rect width="1000" height="1000" fill="white"/>
</clipPath>
</defs>
</svg>
